<?xml version="1.0" encoding="utf-8"?>
<!-- Generator: Adobe Illustrator 19.2.1, SVG Export Plug-In . SVG Version: 6.00 Build 0)  -->
<svg version="1.1" id="Layer_1" xmlns="http://www.w3.org/2000/svg" xmlns:xlink="http://www.w3.org/1999/xlink" x="0px" y="0px"
	 viewBox="0 0 1064 406" style="enable-background:new 0 0 1064 406;" xml:space="preserve">
<style type="text/css">
	.st0{fill:#044D7E;}
	.st1{fill:#054E7E;}
	.st2{fill:#048AE5;}
	.st3{fill:#048BE6;}
	.st4{fill:#038DEA;}
	.st5{fill:#0383D8;}
	.st6{fill:#0589E4;}
	.st7{fill:#048FEC;}
	.st8{fill:#F6A303;}
	.st9{fill:#23A1F4;}
	.st10{fill:#0993EE;}
	.st11{fill:#F6A404;}
	.st12{fill:#0381D4;}
	.st13{fill:#05598F;}
	.st14{fill:#037ECD;}
	.st15{fill:#0B94EF;}
	.st16{fill:#53B8FA;}
	.st17{fill:#037BCA;}
	.st18{fill:#3BADF7;}
	.st19{fill:#0776BF;}
	.st20{fill:#4EB6FA;}
	.st21{fill:#03619F;}
	.st22{fill:#2EA7F6;}
	.st23{fill:#0467A8;}
	.st24{fill:#025B95;}
	.st25{fill:#565B5F;}
	.st26{fill:#605F5F;}
	.st27{fill:#6F7275;}
	.st28{fill:#FEFEFD;}
	.st29{fill:#F7F7F7;}
</style>
<path class="st0" d="M504.4,191c-1.4,2-0.9,3.7-0.9,5.2c0,15.7-0.1,31.3,0,47c0,3.5-0.5,5-4.5,4.8c-7.8-0.4-15.7-0.2-23.5,0
	c-2.7,0.1-3.7-0.6-3.7-3.5c0.1-33.3,0.1-66.6,0-100c0-2.8,0.7-3.7,3.6-3.6c8.2,0.2,16.3,0.2,24.5,0c2.8-0.1,4.1,1.1,5.5,3.2
	c11.1,16.4,22.3,32.7,33.5,49.1c1.1,1.6,2.3,3.1,4.1,5.7c0.2-2.6,0.4-4.1,0.4-5.7c0-16,0.1-32,0-48c0-3.1,0.5-4.4,4.1-4.3
	c8,0.3,16,0.2,24,0c2.8-0.1,3.6,0.7,3.6,3.6c-0.1,33.3-0.1,66.6,0,100c0,2.9-0.8,3.6-3.6,3.6c-8-0.2-16-0.2-24,0
	c-3.1,0.1-4.8-1-6.4-3.4C529,226.9,516.8,209.2,504.4,191z"/>
<path class="st1" d="M647.4,250c-4.6,0.3-10.1-0.3-15.5-1.3c-18.3-3.4-29.8-14.9-35.6-32c-4.8-14-4.6-28.6-0.7-42.8
	c5.6-20.7,22.1-33.4,44.8-34.7c9.8-0.6,19.6-0.4,29.1,3c13.7,4.8,21.5,15,26.4,28c0.9,2.3-0.1,2.7-2.1,3.1c-8,1.7-15.9,3.4-23.8,5.4
	c-2.5,0.6-3.1-0.4-4-2.3c-3.9-8.7-10.6-12.8-19.7-12.1c-8.5,0.6-15.8,6.2-18,14.9c-2.8,10.8-2.6,21.8,0.3,32.6
	c2.1,8,7.8,12.3,15.9,13.1c8.1,0.8,15.2-1.3,19.5-9.1c0.7-1.3,1.4-2.6,2-4c3.1-7.6,3.1-7.6,11.3-5.1c5.2,1.6,10.4,3.4,15.8,4.7
	c4.3,1,4.5,2.9,3.3,6.7c-6.4,20.3-21.8,31.9-43.1,32.2C651.6,250,650,250,647.4,250z"/>
<path class="st1" d="M406.2,141c15.5,0,31,0.1,46.5-0.1c3,0,4.1,0.6,4,3.8c-0.2,6.5-0.2,13,0,19.5c0.1,3.2-1,3.9-4,3.8
	c-8.5-0.2-17,0.1-25.5-0.2c-3.7-0.1-4.8,0.8-4.7,4.6c0.2,23.5,0,47,0.2,70.4c0,4.2-1.1,5.3-5.2,5.2c-8-0.3-16-0.4-24,0
	c-3.9,0.2-4.6-1.2-4.5-4.7c0.2-23.5,0-47,0.2-70.4c0-4.3-1.2-5.2-5.3-5c-8.1,0.3-16.3-0.1-24.5,0.2c-3.7,0.1-4.5-1.1-4.3-4.5
	c0.3-6.1,0.3-12.3,0-18.5c-0.1-3.2,0.8-4.2,4.1-4.2C374.9,141.1,390.5,141,406.2,141z"/>
<path class="st2" d="M158.2,259.9c-6.3-4.7-9.2-11.1-9.2-18.9c0-22.5,0-45,0-67.5c0-14.5,11.2-24.1,25.6-22.3
	c5.4,0.7,10.9,1.3,16.3,2c0,6.2-0.8,12.6,0.2,18.7c1.6,9.5-0.4,18.9,0.5,28.4c0.9,9.1-0.8,18.4-0.6,27.6c0.2,9.9,2,19.8-0.1,29.6
	c-0.2,1.2,0.4,2.3,1.5,2.9c-10.2,1.3-20.3,3.7-30.6,1.6c0,0,0.1,0,0.1,0c-0.3-1-1.2-1-2.1-1.1c0,0,0.1,0.1,0.1,0.1
	C159.4,260.7,158.8,260.3,158.2,259.9z"/>
<path class="st3" d="M158.2,376.9c-5.2-4-6.8-9.7-6.8-15.9c-0.2-23.3-0.3-46.6-0.3-70c0-9.9,7.6-17.4,17.6-18.1
	c8.8-0.6,17.6-1.2,26.4-1.8c-2.1,18.3-0.3,36.7-0.7,55c-0.2,7.2,0.1,14.4-0.1,21.6c-0.3,8.9-1.3,17.9,0.9,26.8
	c-10.7,1.6-21.3,4.1-32.1,4.4c-0.8-0.9-1.9-1.1-3.1-1c0,0,0.1,0,0.1,0C159.7,377.3,158.9,377,158.2,376.9z"/>
<path class="st4" d="M181,31c11.9,3.5,23.5,7.5,35,12c0,33.6,0,67.1,0,100.7c-4.6-0.2-9.2-1.7-13.9-0.7c-7.1-0.4-14.1-1.6-21.1-3
	c-1.2-2-1.3-4.2-1-6.3c1.4-10.8,0.3-21.7,0.5-32.5c0.2-12.9-0.2-25.8-0.1-38.8c0-5.4,0.7-10.9,0.1-16.2C180,41.1,179.6,36.1,181,31z
	"/>
<path class="st5" d="M105.9,19.8c9.8-2.1,19.4-3.3,27.2,5.1c0.3,0.4,0.6,0.7,0.9,1.1c0,0,0-0.1,0-0.1c0.3,0.4,0.7,0.8,1,1.1
	c0,0-0.1-0.1-0.1-0.1c0.4,0.5,0.7,1,1.1,1.6c0,0,0-0.1,0-0.1c0,1-0.1,2,1.1,2.5c0,0,0-0.1,0-0.1c0,0.7,0,1.4,0,2
	c0,25.8,0.1,51.5,0,77.3c0,11.1-7.6,18.8-18.6,19.1c-4.1,0.1-8.3-0.4-12.4-0.6C106,92.4,106,56.1,105.9,19.8z"/>
<path class="st6" d="M181,31c-1.4,5.1-1,10.1-0.5,15.3c0.5,5.4-0.1,10.8-0.1,16.2c-0.1,12.9,0.3,25.9,0.1,38.8
	c-0.2,10.8,0.9,21.7-0.5,32.5c-0.3,2.1-0.2,4.3,1,6.3c-1.1,1.6-2.8,0.5-4.1,1c0,0,0.1,0,0.1,0c-3.5-3.6-8.5-2.3-12.6-4
	c0,0,0.1,0,0.1,0c-1-1.1-2.1-1.9-3.7-2c0,0,0.2,0,0.2,0c-0.7-0.4-1.3-0.8-2-1.2c-6.8-5.4-10.4-12.1-10.1-21
	c0.8-24.1,1.3-48.1,2.1-72.2c0.2-7.9,7.6-14,16.2-13.3C172,27.8,176.8,28.5,181,31z"/>
<path class="st7" d="M192.6,260.4c-1.1-0.6-1.8-1.7-1.5-2.9c2-9.9,0.3-19.8,0.1-29.6c-0.2-9.2,1.5-18.5,0.6-27.6
	c-0.9-9.5,1.1-18.9-0.5-28.4c-1-6.1-0.2-12.4-0.2-18.7c10.1,1.1,20.1,2.2,30.2,3.3c0,33.5-0.1,67.1-0.1,100.6
	C211.6,259,202.1,259.8,192.6,260.4z"/>
<path class="st8" d="M770.3,214c5.3-0.1,10.1,0.4,14.7,1.9c2.3,0.8,4.3,2.1,4.2,4.9c-0.1,2.6-1.8,3.8-4.2,4.1
	c-1.7,0.3-2.8,1.2-3.1,2.8c-3.4,17.9-24.5,26-42.5,20.7c-17.1-5-28.1-20.5-26-36.6c2.3-17.4,16.5-30.1,34.5-30.8
	c4.3-0.2,8.7,0,12.9,1.2c3.3,0.9,6.3,1.2,9.7,0.1c4.5-1.4,9.3,3.8,10.6,10.9c1.2,6.9-1.3,12.1-6.3,12.7c-3.2,0.4-5.8-1-8-3.3
	c-1.8-2-3.5-4.1-5.4-5.9c-8.2-7.2-19.7-4-22.4,6.5c-2.6,9.7-0.5,18.8,5.6,26.9c2.5,3.3,5.9,5.4,10.1,5.8c3.8,0.3,5.9-1.8,6.4-5.5
	c0.5-3.6-0.8-5.8-4.9-5.5c-2.4,0.2-4.3-1.1-4.8-3.5c-0.6-2.8,1.4-4.4,3.7-5.2C760.1,214.4,765.4,213.8,770.3,214z"/>
<path class="st7" d="M195.1,374.6c-2.2-8.9-1.2-17.9-0.9-26.8c0.2-7.2-0.1-14.4,0.1-21.6c0.4-18.3-1.4-36.7,0.7-55
	c8.7-0.2,17.3-0.6,25.9-1.6c0,3.7,0.1,7.3,0.1,11c0.1,30,0.1,59.9,0.1,89.9C212.5,371.9,203.8,373.2,195.1,374.6z"/>
<path class="st8" d="M916.3,206.7c2.9-1.7,5.4-3.5,8.1-4.5c13.1-4.9,25.9,5.8,25.1,20.7c-1.1,20.6-21.1,32.7-41.4,24.8
	c-3.7-1.5-7.1-3-11.3-1.8c-3.3,0.9-4.3-1.1-3.7-4.4c2.5-13.3,1.5-26.8,1.5-40.3c0-2.6-1.3-4.1-3.6-5.3c-4.5-2.4-4.6-5.7-0.2-8.2
	c6.8-3.9,14.3-5.1,22-5.7c3.6-0.3,3.5,2.2,3.5,4.6C916.3,193.2,916.3,199.8,916.3,206.7z M928,230.8c0-5-0.5-9.1-3.3-12.5
	c-1.5-1.8-3.4-2.8-5.7-2c-2.2,0.7-3,2.5-3,4.7c0.1,5.3,0.1,10.6,0.4,15.9c0.1,2.3,0.8,4.7,3.8,5.1c3,0.4,5.1-1.1,6.4-3.7
	C927.9,235.6,928.2,232.8,928,230.8z"/>
<path class="st5" d="M136.1,154.5C136.1,154.5,136,154.4,136.1,154.5c0.3,0.6,0.7,1.3,1,2c0,0,0-0.1,0-0.1c0.3,1.5,0.7,3,1,4.5
	c-0.1,8-0.2,16.1-0.3,24.1c-1.1,3.6-0.6,7.2-0.5,10.9c-0.4,13.6-0.9,27.2-1.2,40.8c-0.3,11-5,15.7-16.2,16.1c-1.6-0.5-3.3-1-4.9-1.5
	c0.6-22,0.4-44.1,0.7-66.1c0.2-13.4-0.2-26.9-0.6-40.3c0-1.4-0.3-2.6-1-3.8c8.1,0.7,14.9,4,20.1,10.4c0.3,0.5,0.7,1,1,1.4
	c0,0-0.1-0.1-0.1-0.1C135.4,153.4,135.7,154,136.1,154.5z"/>
<path class="st9" d="M257.2,251.1c-8.6-5.1-12.6-13-12.8-22.7c-0.3-14.8-0.4-29.7-0.1-44.5c0.1-7.5,2.3-14.5,9-19
	c5.2-3.5,10.9-3.4,16.7-1.9c2.1,6.1-0.6,12.1,0,18.2c1,10.1,0.2,20.2,0.7,30.4c0.6,12.8,0.5,25.8-0.7,38.7c-3.3,0.3-6.6,0.6-9.9,0.9
	C259.2,251.1,258.2,251.1,257.2,251.1z"/>
<path class="st8" d="M854.5,250c-12.9,0-23.1-7-25.4-17.5c-2.7-12.3,3.5-23.4,16-28.8c15-6.4,31.2-1.7,37.8,11.1
	c4.9,9.5,2.9,19.6-5.1,26.6C871.5,247,863.4,250,854.5,250z M863.4,232.3c-0.3-5.8-1.3-10.7-3.4-15.3c-1.2-2.6-2.9-4.7-6.1-3.8
	c-3.1,0.8-3.8,3.6-3.5,6.4c0.5,4.8,1.6,9.5,3.4,14c1.1,2.9,2.9,5.1,6.3,4.4C863.6,237.2,863.4,234.2,863.4,232.3z"/>
<path class="st10" d="M216,143.7c0-33.6,0-67.1,0-100.7c8.2,1.8,14.5,6.3,19,13.4c0.3,0.5,0.7,1.1,1,1.6c0,0-0.1-0.1-0.1-0.1
	c0,1.2,0.1,2.2,1.1,3.1c0,0,0-0.1,0-0.1c0.3,1.4,0.7,2.9,1,4.3c-0.4,20.4-0.7,40.8-1.2,61.2c0,2-0.1,4-0.6,5.9
	C234,140.9,227.5,144.5,216,143.7z"/>
<path class="st11" d="M1000.6,223.9c0.1,2.8,0.2,5.6,0.4,8.5c0.1,1.7,0.5,3.6,2.3,4.1c4.7,1.5,3.1,4.3,1.4,6.9
	c-4.1,6.1-14.8,9.6-20.4,3.5c-2-2.1-3.7-1.4-5.7,0c-5.4,3.5-11.2,4-17.2,2.1c-5.1-1.6-8.1-5.2-9-10.3c-0.9-4.9,1.4-8.7,5.2-11.7
	c5.1-4,11.1-4.9,17.4-5c2.2,0,4.7,0.3,4.8-2.9c0-3.4,0.5-7.4-2.8-9.6c-2.6-1.7-4.6,0.4-6.2,2.5c-1.2,1.6-2.3,3.3-3.7,4.7
	c-3.6,3.8-7.9,4.3-10.5,1.5c-2.4-2.6-1.6-6.8,2.2-10c5.7-4.7,12.5-6.7,19.8-7.2c2.6-0.2,5.3-0.1,7.9,0.5
	c10.4,2.4,14.3,7.2,14.3,17.9c0,1.5,0,3,0,4.5C1000.8,223.9,1000.7,223.9,1000.6,223.9z M980.1,233.8c0-2.7-0.1-5-3-4.7
	c-3.3,0.3-5.1,2.4-5,5.7c0.1,2.4,1.5,4.2,4,4.1C979.8,238.8,980,235.9,980.1,233.8z"/>
<path class="st12" d="M114,141.2c0.7,1.2,0.9,2.4,1,3.8c0.4,13.4,0.8,27,0.6,40.3c-0.4,22-0.1,44.1-0.7,66.1c-6-1.5-11.8-3.6-17.5-6
	c2.2-1.3,1.6-3.5,1.6-5.4c0-11,0.1-22,0-33c-0.1-11.8,0-23.7-0.2-35.5c-0.1-10.5,1.4-21.1-0.8-31.6
	C103.4,139.6,108.7,140.7,114,141.2z"/>
<path class="st13" d="M27.5,118.1C20,113.6,16.3,107,16.2,98.4c-0.1-16.3,0-32.5,0-48.8c0-13.1,10.7-22,20.8-21
	c-0.7,6.3,1.2,12.5,1,18.8c-0.3,8.7-0.8,17.5-0.9,26.2c-0.2,9.1-0.4,18.2,0.2,27.2c0.4,6.3-1.5,12.8,0.8,19
	C34.5,119.2,31,118.6,27.5,118.1z"/>
<path class="st14" d="M105.9,19.8c0,36.3,0.1,72.6,0.1,108.9c-2,0.9-4.1-1.5-6,0.3c-3.3-0.4-6.7-0.8-10-1.2c0-11.2,0-22.4,0-33.6
	c0-22.7,0-45.5,0-68.2c0-1.9,0.2-3.6,2-4.7C96.6,20.8,101.3,20.3,105.9,19.8z"/>
<path class="st15" d="M221.1,370.5c0-30-0.1-59.9-0.1-89.9c0-3.7,0-7.3-0.1-11c7.4-1.1,12.9,2,16.2,8.9c0.9,3,0.9,6.1,1,9.3
	c0.3,5.4-0.6,10.8,0.7,16.1c0.1,15.2,0.1,30.5,0.2,45.7C239.1,361.9,233.3,368.6,221.1,370.5z"/>
<path class="st11" d="M1027.2,250c-4.3,0.2-8.7-0.1-12.8-1.4c-2-0.6-3.5-1.9-4.1-4c-0.6-2.3,1-3.3,2.7-4.1c2.2-1.2,2.7-3.3,2.8-5.5
	c0.7-10.5,0.9-20.9,0.2-31.4c-0.2-3.2-1.5-5.6-4.1-7.5c-4.3-3.2-4.1-6.8,0.8-9.1c6.8-3.3,14.3-4.4,21.7-4.8c4.7-0.3,4.8,3.3,4.4,6.6
	c-1.4,13.8-1.1,27.6-1,41.4c0,4.5-1.2,9.2,4.5,12c2.6,1.2,0.8,5.5-2.8,6.7C1035.6,250.1,1031.4,250.2,1027.2,250z"/>
<path class="st11" d="M799.2,219.2c0-4.7,0-9.3,0-14c0-4.1-1.2-7.3-4.9-9.7c-3.5-2.4-3.3-6,0.3-8c7.3-4,15.4-5.2,23.6-5.3
	c4.3-0.1,4,3.8,3.7,6.8c-1.5,14.1-1,28.3-1,42.4c0,4.1-0.7,8.2,4.4,10.6c2.5,1.2,1.4,5.6-2,6.5c-8.8,2.5-17.8,2.6-26.5-0.3
	c-4.3-1.4-4.6-5.1-0.9-7.6c2.4-1.6,2.9-3.9,3.1-6.4c0.3-5,0.5-10,0.7-15C799.5,219.2,799.3,219.2,799.2,219.2z"/>
<path class="st16" d="M328,170.9c3.1,0.1,6.3,0,9.4,0.2c7,0.4,12.6,5.7,13.6,12.5c0,12.6-0.1,25.2-0.1,37.8c0,17.3-4.8,22-21.9,21.3
	c-0.7-2.2-1-4.5-1-6.8C328,214.2,328,192.6,328,170.9z"/>
<path class="st17" d="M98,139.9c2.2,10.5,0.7,21.1,0.8,31.6c0.2,11.8,0.1,23.6,0.2,35.5c0.1,11,0,22,0,33c0,1.9,0.6,4.1-1.6,5.4
	c-2.1-0.4-4.3-1-6.4-0.3c0,0,0.1,0,0.1,0c-0.5,0,0.3-1.9-1-0.7c-1.1-1-2.5-1.4-3.9-1.5c-0.4-0.3-0.7-0.6-1.1-0.9c0,0,0,0,0,0
	c-1.2-2.2-0.9-4.5-0.9-6.8c0-32,0-64.1,0-96.1C88.7,138.7,93.4,138.6,98,139.9z"/>
<path class="st15" d="M221.1,257.1c0-33.5,0.1-67.1,0.1-100.6c5.8,0.9,10.4,3.8,13.7,8.6c0.4,0.6,0.8,1.3,1.2,1.9
	c0,0-0.1-0.1-0.1-0.1c0.8,3.2,2.2,6.2,2.1,9.6c-0.2,19.6-0.1,39.2-0.4,58.8C237.6,246.8,230.8,255.2,221.1,257.1z"/>
<path class="st18" d="M285,163.5c6.2,0.2,11.3,2.5,15,7.6c0.4,0.6,0.8,1.3,1.1,1.9c0,0-0.1-0.1-0.1-0.1c0.2,0.3,0.4,0.6,0.7,0.9
	c0.2,0.5,0.3,1,0.5,1.5c0.3,0.5,0.6,1,1,1.5c0.3,0.5,0.6,1.1,0.9,1.6c0,0.9,0.1,1.8,0.2,2.7c-0.1,15.9-0.1,31.8-0.3,47.7
	c-0.1,10.7-5.6,18.3-15,20.8c-0.3,0-0.6,0.1-0.9,0.1c-1,0-2,0-3,0.1C285,221,285,192.2,285,163.5z"/>
<path class="st19" d="M84,139.1c0,32,0,64.1,0,96.1c0,2.3-0.2,4.7,0.9,6.8c-9.5-5.1-15.3-12.7-15.5-23.7
	c-0.3-21.3-0.4-42.6-0.4-63.9C69,145.9,75.4,139.5,84,139.1z"/>
<path class="st20" d="M328,170.9c0,21.7,0,43.3-0.1,65c0,2.4,0.3,4.6,1,6.8c-3.7,0.1-7.4,0.2-11.1,0.3c-6-2.4-7.9-7.8-8.8-13.3
	c-1.8-10.4-0.7-20.9-0.9-31.3c-0.1-5.3-0.4-10.6,0.7-15.9C311.1,172.5,317.9,168.3,328,170.9z"/>
<path class="st21" d="M38.1,119.8c-2.4-6.2-0.4-12.7-0.8-19c-0.6-9-0.3-18.1-0.2-27.2c0.1-8.7,0.6-17.5,0.9-26.2
	c0.2-6.3-1.7-12.5-1-18.8c5.6-0.4,11.2-0.8,16.2,2.4c-2,2.1-2.2,4.7-2.2,7.4c0,6.9-0.1,13.9,0,20.8c0.2,7.8,0.7,15.6,0.5,23.3
	c-0.3,9.4-0.1,18.9-0.5,28.3c-0.1,2.4-0.1,4.7,2.1,6.3C48.4,119.9,43.2,119.8,38.1,119.8z"/>
<path class="st22" d="M285,163.5c0,28.8,0,57.5,0,86.3c-5,0.1-10,0.3-15,0.4c1.2-12.9,1.3-25.9,0.7-38.7
	c-0.5-10.1,0.4-20.3-0.7-30.4c-0.6-6,2.1-12.1,0-18.2C275,163.1,280,163.3,285,163.5z"/>
<path class="st13" d="M28.4,217.2c0,0-0.1-0.1-0.2-0.1c-0.6-0.3-1.1-0.7-1.7-1c-7.8-4.9-11.7-11.9-11.5-21.2
	c0.3-15.3,0.3-30.7,0.7-46c0.3-9.8,5-15.6,14.3-18.5c0,28.9,0,57.7,0,86.6C29.5,217,28.9,217.1,28.4,217.2z"/>
<path class="st21" d="M39,129.5c4-1.2,7.4,1,11.1,1.8c1.4,1.9,0.9,4.2,0.9,6.3c0,26.8,0,53.6,0.1,80.4c-3.6,1.7-7.3,1.7-11,0.9
	C38.1,189.2,41.6,159.3,39,129.5z"/>
<path class="st23" d="M53.1,117c-2.1-1.6-2.2-4-2.1-6.3c0.4-9.4,0.2-18.9,0.5-28.3c0.2-7.7-0.3-15.5-0.5-23.3
	c-0.2-6.9,0-13.9,0-20.8c0-2.7,0.1-5.3,2.2-7.4c3.4,1.1,5.8,3.4,7.7,6.3c0.4,0.6,0.8,1.2,1.2,1.8c0,0-0.1-0.1-0.1-0.1
	c2,5.2,2,10.7,2,16.2c-0.1,13.6-0.3,27.3,0.1,40.9C64.3,105.2,61.5,112.5,53.1,117z"/>
<path class="st17" d="M92,21.2c-1.8,1.1-2,2.8-2,4.7c0,22.7,0,45.5,0,68.2c0,11.2,0,22.4,0,33.6c-3.4-0.9-6.7-1.9-10.1-2.8
	c0,0,0.1,0.1,0.1,0.1c0-0.3,0-0.7,0-1c1.1-6.8,1.4-13.8,0.5-20.5c-1.7-12.6,1.1-25-0.2-37.5c-0.6-6.1,1.2-12.4,0.5-18.5
	C79.9,40,81.3,32.5,80,25C83.4,22,87.7,21.6,92,21.2z"/>
<path class="st23" d="M51,218c0-26.8,0-53.6-0.1-80.4c0-2.1,0.4-4.4-0.9-6.3c3.4,0.4,5.8,2.4,8.1,4.8c0.3,0.2,0.5,0.5,0.8,0.7
	c0,0,0.2,0.2,0.2,0.2c0.3,0.3,0.5,0.6,0.8,0.9c0,0,0.1,0.1,0.1,0.1c0.3,0.3,0.6,0.7,0.9,1c0,0,0,0,0,0c0.1,0.8,0.4,1.5,1.2,1.9
	c0,0-0.1-0.1-0.1-0.1c1.7,5.6,2,11.4,1.9,17.2c-0.1,13-0.3,26,0,38.9C64.2,207,61.1,214.6,51,218z"/>
<path class="st19" d="M80,25c1.3,7.5-0.1,15,0.8,22.5c0.7,6.1-1.1,12.4-0.5,18.5c1.2,12.5-1.5,25,0.2,37.5
	c0.9,6.7,0.6,13.7-0.5,20.5c-0.4,0-0.9,0-1.3,0c-6-4.8-8.7-11-8.7-18.6c0.1-20.8,0-41.5,0.1-62.3C70.1,35.4,73,29,80,25z"/>
<path class="st24" d="M39,129.5c2.6,29.8-0.9,59.6,1,89.4c-3.6,0.4-6.9-0.3-10-2c0-28.9,0-57.7,0-86.6C33,129.7,35.9,128.8,39,129.5
	z"/>
<path class="st25" d="M221.1,257.1c9.8-1.9,16.5-10.3,16.7-21.8c0.3-19.6,0.2-39.2,0.4-58.8c0-3.4-1.4-6.4-2.1-9.6
	c4.1,3.7,4.6,8.7,4.6,13.7c-0.1,18.8-0.2,37.6-0.6,56.4c-0.3,14.1-7.6,21.8-21.5,23.4c-13.9,1.6-27.7,3.3-41.6,4.7
	c-5.2,0.5-10.6,1.2-15-2.9c10.3,2,20.5-0.3,30.6-1.6C202.1,259.8,211.6,259,221.1,257.1z"/>
<path class="st26" d="M1044.4,277.1c-0.8,4.2-1.9,8.8-2.6,13.4c-0.5,2.9-2.4,2.6-4.4,2.5c-3.2-0.1-1.5-2.3-1.4-3.6
	c0.5-3.4,1.4-6.8,2-10.3c0.3-1.7,1.1-4-1.1-4.8c-2.5-0.9-4,1.1-4.9,3.1c-1.8,4-2.2,8.3-3.1,12.5c-0.3,1.4-0.3,3-2.5,3.1
	c-2.5,0.1-4.3,0-3.5-3.3c0.9-3.9,1.5-7.8,2.2-11.8c0.2-1.3,0.5-2.8-0.9-3.6c-1.6-0.9-2.8,0.2-3.9,1.3c-2.1,2-2.3,4.7-2.9,7.3
	c-0.6,2.8-1,5.6-1.6,8.3c-0.6,2.7-2.9,1.7-4.5,1.7c-2.3,0-1.4-1.9-1.2-3c1-5.4,2-10.8,3.2-16.1c0.2-1,0.4-3.2,1.6-2.7
	c5.3,2.4,11.1-4.5,16.1,1.2c1.3,1.5,2.4-0.9,3.6-1.4C1040.4,268.4,1044.8,270.9,1044.4,277.1z"/>
<path class="st26" d="M398,293c-7.4,0-12.3-4.8-12.3-12c-0.1-10.2,7.2-18,16.7-18c7.6,0,12.6,4.8,12.7,12.3
	C415.1,285.2,407.6,293,398,293z M391.9,280.3c-0.1,4.7,2.4,7.6,6.5,7.7c5.3,0.2,10.4-6,10.3-12.6c0-4.4-2.9-7.5-7-7.4
	C396.5,268.1,392,273.7,391.9,280.3z"/>
<path class="st26" d="M968.7,272c1.5-1.9,1.5-4.2,1.8-6.3c0.4-3.3,2.7-2.9,4.7-2.7c3.2,0.3,1.3,2.4,1,3.7c-1.5,7.7-3.1,15.3-4.8,23
	c-0.3,1.2,0.1,3.7-2.1,3.2c-4-0.8-7.9,0.1-11.8-0.1c-1.4-0.1-2.8-1-3.9-2.1c-3.2-3.4-2.9-11.4,0.6-16.4c3.3-4.6,7.7-5.5,13.1-2.8
	C967.8,271.7,968.3,271.9,968.7,272z M967.1,280.6c0.2-3.7-1.4-6.3-3.8-6.6c-3-0.3-5.9,4-6.1,9c-0.1,2.8,0.6,5.4,3.9,5.9
	C964.2,289.4,966.9,285.4,967.1,280.6z"/>
<path class="st26" d="M562.4,280.2c-0.4,9.6-6.4,13.9-15.9,11.2c-2.1-0.6-1.9,0.7-2.2,1.6c-0.6,2.1-0.9,4.2-1.4,6.3
	c-0.7,2.7-2.9,1.6-4.5,1.6c-2.3,0-1.4-1.8-1.2-3c1.7-8.1,3.4-16.3,5.2-24.4c0.2-1,0.2-2.8,1.8-2.5c4,0.8,7.7-1.1,11.6-1
	C560.2,270.2,562.7,274.3,562.4,280.2z M546.7,282.6c-0.2,3.8,1.3,6.3,3.9,6.4c3,0.1,5.9-4.1,6-9.1c0-2.8-0.5-5.5-4-5.8
	C549.6,273.7,547,277.6,546.7,282.6z"/>
<path class="st25" d="M53.1,117c8.5-4.5,11.3-11.8,11-21.1C63.7,82.3,63.9,68.7,64,55c0-5.5,0-10.9-2-16.2c3.3,3,4.2,7,4.2,11.3
	c0,17.1-0.1,34.3,0,51.4c0,5.9-2.2,10.7-6.3,14.7c-7.5,7.2-24.2,8.2-32.4,1.9c3.5,0.6,7,1.1,10.6,1.7
	C43.2,119.8,48.4,119.9,53.1,117z"/>
<path class="st26" d="M30,216.9c3.1,1.7,6.5,2.4,10,2c3.8,0.8,7.5,0.8,11-0.9c10-3.5,13.2-11,13-21c-0.3-13-0.2-26,0-38.9
	c0.1-5.8-0.2-11.6-1.9-17.2c3.5,3,3.9,7.2,4,11.3c0.2,16.8,0.2,33.6,0,50.3c-0.1,10.5-6.4,17.8-16.9,18.8
	c-7.2,0.8-14.6,0.6-20.8-4.2C28.9,217.1,29.5,217,30,216.9z"/>
<path class="st26" d="M737.1,263.4c9.7-2.8,7.8,7,12,10.3c5.1-2.9,5.6-12.7,15.3-10.3c-2.7,3.7-5,7.4-7.7,10.7
	c-3.8,4.6-6.9,9.4-7.2,15.5c-0.2,3.7-2.6,3.9-5.1,3.3c-3-0.6-1.3-3-0.9-4.3c1.9-5.6,0.7-10.6-2.2-15.6
	C739.7,270,738.5,266.7,737.1,263.4z"/>
<path class="st26" d="M804.7,271.5c-1.1,4.5-2,8.9-3.1,13.3c-0.4,1.5-0.7,3,1,3.9c1.6,0.8,2.9,0,4.1-1c3.8-3.5,3.4-8.5,4.6-12.9
	c0.6-2.5,1.4-4.2,4.5-3.8c2,0.2,2.6,0.8,2.1,2.7c-1.4,5.7-2.7,11.3-3.9,17c-0.6,3-3.5,3.1-4.5,2.2c-2.5-2.4-4.4-0.6-6.6-0.1
	c-5.3,1.4-8.5-1.5-7.7-7c0.5-3.3,1.7-6.5,2.1-9.8C797.8,271.6,799.8,269.9,804.7,271.5z"/>
<path class="st26" d="M421,285.9c0.9-3.8,2-8.3,3-12.8c0.8-3.3,3.5-2.1,5.3-1.9c2.8,0.4,0.7,2.4,0.5,3.5c-0.6,3.6-1.6,7.1-2.5,10.7
	c-0.3,1.2-0.3,2.4,0.8,3.1c1.3,0.9,2.5,0.5,3.7-0.3c2.1-1.3,3.1-3.4,3.7-5.7c0.7-2.9,1.5-5.8,1.9-8.8c0.5-3.3,2.8-2.8,4.9-2.6
	c3.2,0.2,1.4,2.4,1.1,3.7c-1.1,5.2-2.4,10.4-3.4,15.6c-0.5,2.8-2.8,3.7-4.2,2.5c-2.9-2.3-5-0.5-7.6,0.1
	C423.5,293.9,420.7,291.3,421,285.9z"/>
<path class="st26" d="M943.9,288.2c-5,5-10.4,6.2-14.9,3.5c-3.9-2.4-5.5-7-4.2-12.3c1.4-5.7,5.8-9.3,11.4-9.4c7.6,0,9.8,6,9,12.5
	c-0.2,1.7-1.5,1.5-2.6,1.5c-2.8,0-5.7-0.1-8.5,0.1c-1.2,0.1-3.4-1.1-3.4,1.5c0.1,2.1,1.6,3.3,3.6,3.3c0.9,0,2.2-0.2,2.7-0.9
	C939.5,285.1,941.5,286.9,943.9,288.2z M931.1,278.5c0.2,2.5,2.3,1.5,3.3,1.3c1.8-0.4,4.8,1.9,5.2-1.5c0.3-2.2-1-4.3-3.8-4.3
	C933.2,274.1,932,276.1,931.1,278.5z"/>
<path class="st26" d="M916.9,288.3c-5.2,5-10.6,6.1-15,3.4c-4-2.5-5.6-7.4-4-12.8c1.6-5.5,6.3-9,11.8-8.8c6.1,0.2,10.5,6.8,8.4,12.6
	c-0.6,1.6-1.6,1.4-2.7,1.4c-2.5,0-5-0.1-7.5,0.1c-1.5,0.1-3.6-1-4.3,1.1c-0.3,1,0.4,2.2,1.5,2.9c1.7,1.2,3.7,1.4,5-0.2
	C912.4,285.3,914.3,286.8,916.9,288.3z M908.1,280.1c1.4-1,4.4,1.5,4.6-1.8c0.2-2.3-1.1-4.3-3.8-4.2c-2.7,0.1-4.5,2-4.6,4.5
	C904.2,281.4,906.8,279.3,908.1,280.1z"/>
<path class="st26" d="M695.9,288.3c-5.3,5-10.6,6.1-15.1,3.3c-4-2.5-5.5-7.4-3.9-12.8c1.6-5.5,6.3-9,11.9-8.8
	c6.1,0.3,10.5,7,8.3,12.7c-0.6,1.6-1.7,1.3-2.8,1.4c-2.5,0-5-0.1-7.5,0c-1.4,0.1-3.2-0.8-4.1,0.8c-0.7,1.1,0.1,2.2,1,3
	c1.5,1.4,3.5,1.9,5,0.4C691.1,285.7,693.2,286.4,695.9,288.3z M687.5,280.2c1.3-1.1,4.5,1.6,4.3-2.3c-0.1-2.1-1.3-3.9-3.7-3.9
	c-2.7,0.1-4.6,2-4.7,4.3C683.2,281.5,686.1,279.2,687.5,280.2z"/>
<path class="st26" d="M505,288.3c-5.6,5.1-10.8,6.1-15.3,3.2c-4-2.6-5.5-8-3.7-13.4c1.8-5.2,6.5-8.4,11.9-8.1
	c6,0.3,10.5,7.4,8.1,12.8c-0.7,1.6-1.8,1.2-2.9,1.2c-2.5,0.1-5-0.1-7.5,0.1c-1.4,0.1-3.2-0.8-4,0.9c-0.5,1.1,0.2,2.2,1.2,3
	c1.6,1.3,3.6,1.7,5,0.2C500.3,285.3,502.3,286.7,505,288.3z M496.2,280.1c1.4-1,4.4,1.5,4.5-1.9c0.1-2.3-1.2-4.3-3.9-4.2
	c-2.7,0.1-4.5,2.1-4.5,4.5C492.2,281.4,494.9,279.3,496.2,280.1z"/>
<path class="st26" d="M589,288.3c-5.5,5.1-10.7,6.1-15.2,3.2c-4.1-2.6-5.5-7.9-3.7-13.4c1.8-5.3,6.9-8.7,12.3-8.2
	c5.7,0.6,9.9,7.5,7.7,12.8c-0.6,1.6-1.8,1.2-2.9,1.2c-2.5,0.1-5-0.1-7.5,0.1c-1.4,0.1-3.2-0.8-4,0.9c-0.5,1.1,0.2,2.2,1.1,3
	c1.6,1.3,3.6,1.7,5,0.2C584.2,285.4,586.3,286.6,589,288.3z M580.4,280.3c1.1-1.5,4.2,1.5,4.3-2c0.1-2.3-1.2-4.3-3.9-4.2
	c-2.7,0.1-4.5,2.1-4.5,4.5C576.2,281.4,578.9,279.3,580.4,280.3z"/>
<path class="st26" d="M787.1,280.1c0,7.4-5.2,12.9-12.2,12.9c-6.4,0-10.4-3.9-10.4-10.1c0.1-7.5,5.1-12.8,12.3-12.9
	C783.3,269.9,787.1,273.7,787.1,280.1z M781.1,280c0.1-3.9-1.4-6-4.3-6c-3.3,0-6.3,4-6.4,8.9c-0.1,3.1,0.8,5.8,4.4,6.1
	C778.1,289.2,781,285,781.1,280z"/>
<path class="st26" d="M1003.1,280.1c0,7.4-5.2,12.9-12.3,12.9c-6.4,0-10.4-4-10.3-10.2c0.1-7.5,5.2-12.8,12.3-12.8
	C999.3,270,1003.1,273.7,1003.1,280.1z M997.1,280.3c0.1-3.1-0.3-5.8-4.1-6.2c-3.3-0.4-6.3,3.6-6.6,8.6c-0.2,3.1,0.6,5.8,4.2,6.3
	C993.9,289.4,996.9,285.3,997.1,280.3z"/>
<path class="st26" d="M648.1,287c2.9-0.7,5.1-1.6,7.2,0.9c1.1,1.4,3,1.3,4.7,1c1.2-0.2,2.3-0.9,2.5-2.1c0.3-1.5-1.1-1.9-2.1-2.3
	c-2-0.9-4.1-1.4-6-2.4c-3.4-1.7-4.3-4.5-2.4-7.9c2.7-4.9,13.3-5.7,16.8-1.4c1.6,2,0.9,2.5-1.4,3.1c-2.4,0.6-3.7-1.2-5.6-1.5
	c-1.8-0.3-4.1-0.8-4.7,1.4c-0.7,2.3,1.8,2.3,3.2,2.9c0.6,0.3,1.3,0.4,1.9,0.6c3.3,1.1,6.6,2.5,6.3,6.6c-0.3,4.5-3.6,6.5-7.7,7.2
	C655,293.9,650.9,292,648.1,287z"/>
<path class="st26" d="M509.9,292.3c2.9-3.4,6.5-6.1,8.1-9.7c1.8-4-3.4-7.1-3.7-11.1c5.3-2.6,6.7,2,8.9,5.4c3.3-3.2,5.8-7.7,11.5-5.4
	c-1.2,2.9-3.7,5.2-5.9,7.3c-2.7,2.6-3.2,4.9-1.1,8.1c1.1,1.7,2.6,3.5,2.6,5.7c-5,1.9-6.9-1.4-8.6-5.4
	C518.4,290.4,516,295.2,509.9,292.3z"/>
<path class="st25" d="M317.9,243.1c3.7-0.1,7.4-0.2,11.1-0.3c17.1,0.6,21.9-4.1,21.9-21.3c0-12.6,0.1-25.2,0.1-37.8
	c2.4,1.5,2.2,4,2.2,6.2c0.1,12.8,0.2,25.6,0,38.4c-0.1,10.8-6,16.6-16.7,16.8c-4.7,0.1-9.3,0.1-14,0.1
	C320.7,245.2,318.7,245.4,317.9,243.1z"/>
<path class="st25" d="M221.1,370.5c12.2-1.9,17.9-8.6,17.9-20.8c0-15.2-0.1-30.5-0.2-45.7c0.6-1.6-1.1-3.9,1.6-4.8
	c0.6,4.3,0.5,8.6,0.2,13c-1.7,9-0.3,18.2-0.6,27.2c-0.1,1.9-0.8,4,0.9,5.7c0.3,3.3,0.6,6.7,0,10c-1.3,1-1,2.3-0.6,3.6
	c-1.7,6.7-5.7,11.3-12.5,13.1c-0.9-1.1-1.5-0.6-2,0.4c-1,0.2-2,0.4-3,0.7c-1.1-1.1-2.1-1-3,0.3c-1,0.2-2,0.4-3,0.7
	c-1.1-1-2.1-0.9-2.9,0.3c-0.8,0.1-1.6,0.3-2.4,0.4c-1.7-0.3-3.4-1-4.7,0.7c-0.9,0.6-1.9,0.8-3,0.6c-1.1-1.1-2.1-1-3,0.3
	c-1,0.2-2,0.4-3,0.7c-1.1-1-2.1-0.9-2.9,0.3c-0.8,0.1-1.6,0.3-2.4,0.4c-1.7-0.3-3.4-1-4.7,0.7c-0.9,0.6-1.9,0.8-3,0.6
	c-1.1-1.1-2.1-1-3,0.3c-1,0.2-2,0.4-3,0.7c-1.1-1-2.1-0.9-2.9,0.3c-0.8,0.1-1.6,0.3-2.3,0.4c-3.1-0.5-6.2-0.5-9.3,0
	c-0.4-0.1-0.9-0.3-1.3-0.4c0-0.3,0-0.6,0-0.9c10.9-0.3,21.4-2.8,32.1-4.4C203.8,373.2,212.5,371.9,221.1,370.5z"/>
<path class="st26" d="M871.6,262.9c0.8,0.1,1.7,0,2.5,0.3c1,0.3,2.5,0.1,2.4,1.8c-0.1,1.3-0.8,2.1-2.3,2c-1.6-0.1-3.5-0.3-4,2
	c-0.6,2.8,1.6,1.7,2.8,2.1c0.8,0.2,1,0.7,0.7,1.4c-0.4,1-0.3,2.6-1.9,2.5c-3.6-0.4-3.4,2.3-3.8,4.5c-0.7,3.6-1.6,7.1-2,10.8
	c-0.4,3.3-2.5,3-4.7,2.8c-3-0.4-1.2-2.6-1.1-3.9c0.3-3,1.3-5.8,1.6-8.8c0.2-1.9,2.3-4.5-1.4-5.7c-0.9-0.3-0.4-2.4,0.1-2.6
	c3.7-1,3.6-4.5,5.2-6.9C867.1,263.1,869.3,262.8,871.6,262.9z"/>
<path class="st25" d="M100,129c1.9-1.8,4,0.6,6-0.3c4.1,0.2,8.3,0.7,12.4,0.6c11.1-0.3,18.6-8,18.6-19.1c0.1-25.8,0-51.5,0-77.3
	c1.8,1.3,0,4,2.1,5.1c0,24.9,0,49.9,0,74.8c-1.1,3.4-2.1,6.8-3.2,10.2c0,0.4-0.2,0.6-0.5,0.8c-1.9,0.5-3.1,1.8-3.6,3.6
	c-0.1,0.3-0.4,0.5-0.7,0.5C120.9,132.7,110.5,130.4,100,129z"/>
<path class="st26" d="M627.6,265c1,2.3-2.7,5.5,2,6.5c0.9,0.2,0.4,2.7-0.9,3.2c-6,2.5-3.1,8.5-5,12.7c-0.1,0.3,0.3,1.1,0.6,1.2
	c1.9,0.4,3.8,1.1,2.2,3.4c-1.3,2-3.7,1.1-5.5,0.8c-2.4-0.4-3.9-2-3.5-4.6c0.5-3.3,1.3-6.5,1.9-9.7c0.3-1.4,1.6-3.1-1.4-3.6
	c-1.8-0.3-0.7-2.5-0.2-2.7C621.6,270.5,622.9,265.3,627.6,265z"/>
<path class="st25" d="M216,143.7c11.5,0.8,18-2.9,20.3-11.5c0.5-1.9,0.5-3.9,0.6-5.9c0.4-20.4,0.8-40.8,1.2-61.2
	c1.6,1.7,0.8,3.7,0.9,5.6c0.5,5.4-0.9,10.8,0.7,16.1c-0.3,15-0.5,30.1-0.8,45.1c-0.9,0.7-0.9,1.6-0.6,2.5c-0.6,3.8-2.8,6.6-6.1,8.6
	c-5.7,2.6-11.9,1.6-17.8,2.3c-0.8-0.1-1.6-0.2-2.4-0.3c-1.9-1.7-3.9-1.3-5.9-0.4c-1-0.2-2-0.4-3-0.5c-0.3-0.3-0.7-0.7-1-1
	C206.8,142.1,211.4,143.5,216,143.7z"/>
<path class="st26" d="M598.6,292.9c-2.3,0.3-3-0.5-2.6-2.5c1.2-5.8,2.3-11.7,3.4-17.5c0.2-0.8,0.5-2,1.3-1.8
	c3.8,1.1,7.3,0.2,10.8-1.1c0.7-0.2,2-0.1,1.8,1.1c-0.2,1.2-0.9,3.3-1.6,3.4c-9.3,1.3-8.1,9.2-9.7,15.2
	C601.5,291.9,601.2,293.8,598.6,292.9z"/>
<path class="st26" d="M451.7,292.9c-2.7,0.6-3.2-0.7-2.7-3c1.1-5.5,2.2-11,3.2-16.6c0.1-0.3,0.2-0.6,0.3-1c0.3-1.2,1.5-1.9,2.2-1.3
	c4.1,3.2,7.6-2.9,11.2-0.6c1.5,1-0.3,3.9-1.2,4c-9,1.3-8,8.9-9.6,14.8C454.5,291.2,454.9,293.6,451.7,292.9z"/>
<path class="st26" d="M825.8,292.9c-2.5,0.4-3.3-0.5-2.8-2.7c1.2-5.7,2.2-11.4,3.3-17c0.1-0.5,0.2-1.1,0.5-1.4
	c0.4-0.4,1.3-0.9,1.6-0.8c4.1,2.8,7.7-2.4,11.2-0.7c1.9,0.9-0.1,4.1-1.1,4.3c-9.1,1.4-7.8,9-9.5,14.9
	C828.5,291.4,828.6,293.7,825.8,292.9z"/>
<path class="st26" d="M879.3,293c-2.1,0.3-2.7-0.6-2.3-2.8c1.2-5.7,2.2-11.4,3.3-17c0.1-0.5,0.2-1.1,0.5-1.4
	c0.4-0.4,1.4-0.9,1.6-0.7c4.1,2.8,7.7-2.3,11.3-0.7c2,0.9-0.1,3.9-0.8,4c-9.5,1.7-8.3,9.8-10,16.1C882.2,293,882.2,293,879.3,293z"
	/>
<path class="st25" d="M270,250.2c5-0.1,10-0.3,15-0.4c1,0,2,0,3-0.1c0,0,0.5,0,0.5,0l0.4-0.2c9.3-2.5,14.9-10.1,15-20.8
	c0.1-15.9,0.2-31.8,0.3-47.7c0,0,0.4-0.1,0.4-0.1c0.2,0.5,0.5,1,0.7,1.4c-1,19,0.8,38-1.1,57c-1,4.2-3.4,7.4-7.1,9.7
	c-4.5,1.8-9.2,2.3-14.1,2c-1.2-0.1-2.3-0.1-3.1,1.1c-4,0.3-8,1-12.1,0.5c-2.1-1.3-4.3-0.6-6.5-0.4c-0.5-0.2-0.9-0.4-1.4-0.6
	c0.1-0.2,0.1-0.4,0.1-0.6C263.4,250.8,266.7,250.5,270,250.2z"/>
<path class="st26" d="M1057,168.3c0,6.8-5.3,12.1-11.9,12c-6.6,0-12-5.5-11.9-12.1c0-6.6,5.5-12.1,12-12.1
	C1051.7,156,1057.1,161.6,1057,168.3z M1055,168.2c0-5.9-4.3-10.3-9.9-10.2c-5.5,0-9.8,4.7-9.8,10.4c0,5.7,4.5,10.3,10,10.3
	C1050.7,178.6,1055,174,1055,168.2z"/>
<path class="st26" d="M636.9,293c-2.4,0.4-3.3-0.5-2.7-3c1.2-5.5,2.5-11,3.4-16.5c0.6-3.5,2.9-2.5,4.8-2.4c2.7,0.2,1.2,2.2,1,3.4
	c-1,5.4-2.3,10.7-3.2,16C639.9,292.6,638.9,293.3,636.9,293z"/>
<path class="st25" d="M119.8,252.9c11.3-0.4,15.9-5.2,16.2-16.1c0.3-13.6,0.8-27.2,1.2-40.8c1.4,1.8,0.7,3.8,0.8,5.8
	c0.4,8-0.8,16.1,0.6,24.2c-0.2,4-0.4,8.1-0.5,12.1c-1.7,3.8-0.9,8.3-3.1,12c-1,1.8-2.6,2.7-4.5,3.2c-1-0.2-1.9-0.1-2.5,0.9
	c-0.5,0.1-0.9,0.2-1.4,0.3c-2.1-0.5-4.2-0.5-6.2,0c-0.8-0.1-1.6-0.3-2.4-0.4C118.6,253.6,119.2,253.3,119.8,252.9z"/>
<path class="st27" d="M100,129c10.4,1.3,20.9,3.7,31.2-0.9c-3.3,3.6-7.8,4.4-12.2,4.1c-10.2-0.7-20.4-1.8-30.5-2.9
	c-3.3-0.4-6.4-1.5-8.5-4.4c3.4,0.9,6.7,1.9,10.1,2.8C93.3,128.2,96.7,128.6,100,129z"/>
<path class="st27" d="M304.2,239.4c1.9-19,0.1-38,1.1-57c1.3,1.2,1,2.7,1,4.2c0,15.1,0,30.2,0,45.3
	C306.3,234.6,306.1,237.3,304.2,239.4z"/>
<path class="st27" d="M138.6,225.9c-1.4-8-0.2-16.1-0.6-24.2c-0.1-1.9,0.6-4-0.8-5.8c-0.1-3.6-0.5-7.3,0.5-10.9
	c0.4,1.4-0.6,3.4,1.8,3.9C139.5,201.3,139.8,213.6,138.6,225.9z"/>
<path class="st27" d="M119.8,252.9c-0.6,0.3-1.2,0.7-1.8,1c-9.4-1.7-18.3-5.3-27.1-8.9c2.2-0.7,4.3,0,6.4,0.3
	c5.7,2.4,11.5,4.5,17.5,6C116.5,251.9,118.2,252.4,119.8,252.9z"/>
<path class="st26" d="M708.1,287c2.1-0.3,3.1,0.3,2.3,3c-1,3.5-1,7.4-4.9,9.2c-0.8,0.4-1.9,1.3-2.6,0.2c-0.5-0.8-0.1-1.9,0.8-2.5
	c1.7-1.3,3.3-2.1,0.7-4.6C702.6,290.6,705.2,287,708.1,287z"/>
<path class="st27" d="M241,345c-1.7-1.7-1-3.8-0.9-5.7c0.4-9.1-1-18.2,0.6-27.2C241.8,323,241.5,334,241,345z"/>
<path class="st27" d="M240.5,299.1c-2.7,0.9-1,3.2-1.6,4.8c-1.3-5.3-0.4-10.8-0.7-16.1c-0.2-3.1-0.1-6.2-1-9.3
	c2.4,1.4,3.1,3.7,3.3,6.2C240.8,289.5,241.3,294.3,240.5,299.1z"/>
<path class="st27" d="M138.1,160.9c-0.3-1.5-0.7-3-1-4.5c2.4,1.2,2.9,3.8,3,5.9c0.4,8.2,0.9,16.4-0.4,24.6
	c-1.4-4.4-0.2-8.8-0.6-13.2C138.6,169.4,140.1,165,138.1,160.9z"/>
<path class="st27" d="M202.1,143c0.3,0.3,0.7,0.7,1,1c-8.8-0.1-17.6-0.9-26.2-3c1.3-0.5,3,0.6,4.1-1C188,141.4,195,142.7,202.1,143z
	"/>
<path class="st27" d="M239.7,86.9c-1.5-5.3-0.2-10.7-0.7-16.1c-0.2-1.9,0.7-4-0.9-5.6c-0.3-1.4-0.7-2.9-1-4.3c2.4,1.3,2.9,3.7,3,5.9
	C240.4,73.5,240.9,80.2,239.7,86.9z"/>
<path class="st27" d="M214.4,145.4c6-0.7,12.1,0.4,17.8-2.3C226.8,147.8,220.6,146.9,214.4,145.4z"/>
<path class="st27" d="M280,252.1c0.8-1.1,2-1.1,3.1-1.1c4.8,0.3,9.5-0.2,14.1-2C292.1,254,285.9,252.1,280,252.1z"/>
<path class="st26" d="M642,268c-1.2-0.2-3.2,0.8-2.9-1.9c0.3-2.1,1.1-3.5,3.5-3c1.2,0.2,3.3-0.9,2.9,1.9
	C645.1,266.9,644.6,268.6,642,268z"/>
<path class="st25" d="M138.1,160.9c2.1,4.1,0.5,8.4,0.9,12.7c0.4,4.4-0.8,8.9,0.6,13.2c0,0.7,0,1.4-0.1,2.1
	c-2.4-0.5-1.3-2.5-1.8-3.9C137.9,177,138,169,138.1,160.9z"/>
<path class="st27" d="M164.4,137.1c4.1,1.7,9.1,0.4,12.6,4C172.2,141.7,167.9,140.5,164.4,137.1z"/>
<path class="st27" d="M947.1,258.9c0.4,0.4,0.9,0.7,0.9,1c0.1,0.6,0.1,1.4-0.2,1.9c-1.1,2,0.2,5.1-2.9,6.1c-0.4,0.1-1.3-0.3-1.3-0.4
	c0.1-2.8,1.2-5.3,2.3-7.8C946.1,259.4,946.6,259.2,947.1,258.9z"/>
<path class="st27" d="M135,250c2.2-3.7,1.3-8.2,3.1-12C138.6,242.4,139.1,246.8,135,250z"/>
<path class="st27" d="M136.1,123.2c1.1-3.4,2.1-6.8,3.2-10.2C139.9,116.8,139.1,120.4,136.1,123.2z"/>
<path class="st27" d="M164.4,380.4c3.1-0.5,6.2-0.5,9.3,0C170.6,381.9,167.5,382,164.4,380.4z"/>
<path class="st27" d="M139.2,38.1c-2.2-1.1-0.4-3.8-2.1-5.1c0-0.7,0-1.4,0-2C139.9,32.7,139.5,35.4,139.2,38.1z"/>
<path class="st27" d="M261.4,252.3c2.2-0.2,4.4-0.9,6.5,0.4C265.7,253.6,263.5,253.8,261.4,252.3z"/>
<path class="st27" d="M206.1,144.6c2-0.9,4-1.2,5.9,0.4C210,145.5,208,145.8,206.1,144.6z"/>
<path class="st27" d="M120.4,254.4c2.1-0.5,4.2-0.5,6.2,0C124.5,255.7,122.5,255.7,120.4,254.4z"/>
<path class="st27" d="M131.9,127.6c0.5-1.9,1.7-3.1,3.6-3.6C135.1,125.9,133.9,127.1,131.9,127.6z"/>
<path class="st27" d="M206.9,375.1c1.3-1.8,3.1-1,4.7-0.7C210.2,375.7,208.6,375.4,206.9,375.1z"/>
<path class="st27" d="M187.9,378.1c1.3-1.8,3.1-1,4.7-0.7C191.2,378.7,189.6,378.4,187.9,378.1z"/>
<path class="st27" d="M304.6,181c0,0-0.4,0.1-0.4,0.1c-0.1-0.9-0.1-1.8-0.2-2.7C304.5,179.2,305.7,179.8,304.6,181z"/>
<path class="st27" d="M200.9,376.1c0.9-1.3,1.9-1.4,3-0.3C203,376.5,202,376.5,200.9,376.1z"/>
<path class="st27" d="M214,374c0.9-1.2,1.8-1.3,2.9-0.3C216,374.6,215,374.5,214,374z"/>
<path class="st27" d="M195,377c0.9-1.2,1.8-1.3,2.9-0.3C197,377.6,196,377.5,195,377z"/>
<path class="st27" d="M219.9,373.1c0.9-1.3,1.9-1.4,3-0.3C222,373.5,221,373.4,219.9,373.1z"/>
<path class="st27" d="M240.4,358.6c-0.4-1.3-0.7-2.6,0.6-3.6C241.6,356.3,241.5,357.6,240.4,358.6z"/>
<path class="st27" d="M176,380c0.9-1.2,1.8-1.3,2.9-0.3C178,380.6,177,380.5,176,380z"/>
<path class="st27" d="M181.9,379.1c0.9-1.3,1.9-1.4,3-0.3C184,379.5,183,379.5,181.9,379.1z"/>
<path class="st27" d="M163,379.1c0,0.3,0,0.6,0,0.9c-1.4,0-2.6-0.4-3.1-1.9C161.1,377.9,162.2,378.1,163,379.1z"/>
<path class="st27" d="M160.8,135.1c1.6,0.1,2.7,0.9,3.7,2C162.8,137.4,161.6,136.7,160.8,135.1z"/>
<path class="st27" d="M238.3,134.5c-0.3-0.9-0.3-1.8,0.6-2.5C239.6,133.1,239.2,133.9,238.3,134.5z"/>
<path class="st27" d="M128,254.1c0.6-1,1.5-1.1,2.5-0.9C129.9,254.2,129.1,254.6,128,254.1z"/>
<path class="st27" d="M225.9,372.1c0.5-1,1.1-1.4,2-0.4C227.4,372.4,226.7,372.5,225.9,372.1z"/>
<path class="st27" d="M303.1,176.8c-0.3-0.5-0.6-1-1-1.5C302.9,175.5,303.7,175.8,303.1,176.8z"/>
<path class="st27" d="M260.1,251.1c0,0.2,0,0.4-0.1,0.6c-1-0.2-1.9-0.4-2.9-0.7C258.2,251.1,259.2,251.1,260.1,251.1z"/>
<path class="st25" d="M237.1,61c-0.9-0.8-1.1-1.9-1.1-3.1C237.2,58.7,237.4,59.7,237.1,61z"/>
<path class="st27" d="M137.1,31c-1.2-0.5-1.1-1.5-1.1-2.5C136.9,29.1,137.6,29.8,137.1,31z"/>
<path class="st27" d="M301.1,173c-0.4-0.6-0.8-1.3-1.1-1.9C300.6,171.6,301.2,172.1,301.1,173z"/>
<path class="st25" d="M236.1,167c-0.4-0.6-0.8-1.3-1.2-1.9C235.6,165.6,236.2,166.1,236.1,167z"/>
<path class="st25" d="M158.2,259.9c0.6,0.4,1.2,0.8,1.8,1.2C159.2,261.1,158.6,260.6,158.2,259.9z"/>
<path class="st25" d="M159.9,261c0.8,0.1,1.7,0,2.1,1.1C161,262.3,160.4,261.9,159.9,261z"/>
<path class="st26" d="M62.1,141c-0.8-0.4-1.1-1.1-1.2-1.9C61.7,139.5,62.2,140,62.1,141z"/>
<path class="st27" d="M159,133.9c0.7,0.4,1.3,0.8,2,1.2C160,135.3,159.5,134.6,159,133.9z"/>
<path class="st27" d="M90,244.4c1.3-1.2,0.5,0.6,1,0.7C90.4,245.3,90.1,245,90,244.4z"/>
<path class="st25" d="M62.1,39c-0.4-0.6-0.8-1.2-1.2-1.8C61.6,37.6,62.2,38.1,62.1,39z"/>
<path class="st27" d="M158.2,376.9c0.8,0.1,1.5,0.3,1.8,1.2C159.1,378.2,158.6,377.6,158.2,376.9z"/>
<path class="st27" d="M136,28.5c-0.4-0.5-0.7-1-1.1-1.6C135.3,27.5,135.7,28,136,28.5z"/>
<path class="st27" d="M135,27.1c-0.3-0.4-0.7-0.8-1-1.1C134.4,26.3,134.7,26.7,135,27.1z"/>
<path class="st27" d="M134.1,26c-0.3-0.4-0.6-0.7-0.9-1.1C133.5,25.3,133.8,25.6,134.1,26z"/>
<path class="st27" d="M301.7,173.8c-0.2-0.3-0.4-0.6-0.7-0.9C301.2,173.2,301.4,173.5,301.7,173.8z"/>
<path class="st26" d="M60,138c-0.3-0.3-0.5-0.6-0.8-0.9C59.4,137.3,59.7,137.6,60,138z"/>
<path class="st26" d="M59,136.8c-0.3-0.2-0.5-0.5-0.8-0.7C58.4,136.3,58.7,136.6,59,136.8z"/>
<path class="st25" d="M236,58c-0.3-0.5-0.7-1.1-1-1.6C235.3,57,235.7,57.5,236,58z"/>
<path class="st27" d="M78.7,124.1c0.4,0,0.9,0,1.3,0c0.1,0.3,0.1,0.7,0,1C79.6,124.7,79.1,124.4,78.7,124.1z"/>
<path class="st26" d="M60.9,139.1c-0.3-0.3-0.6-0.7-0.9-1C60.3,138.4,60.6,138.7,60.9,139.1z"/>
<path class="st19" d="M84.9,242.1c0.4,0.3,0.7,0.6,1.1,0.9C85.3,243.1,84.9,242.8,84.9,242.1z"/>
<path class="st27" d="M135.1,153c-0.3-0.5-0.7-1-1-1.4C134.4,152.1,134.7,152.5,135.1,153z"/>
<path class="st27" d="M136.1,154.5c-0.4-0.5-0.7-1.1-1.1-1.6C135.8,153.2,136.1,153.7,136.1,154.5z"/>
<path class="st26" d="M26.5,216.1c0.6,0.3,1.1,0.7,1.7,1C27.7,216.8,27.1,216.4,26.5,216.1z"/>
<path class="st27" d="M137.1,156.5c-0.4-0.7-0.7-1.4-1.1-2.1C136.9,154.9,137.3,155.5,137.1,156.5z"/>
<path class="st28" d="M928,230.8c0.1,2.1-0.1,4.9-1.4,7.5c-1.3,2.6-3.4,4.1-6.4,3.7c-3-0.4-3.6-2.8-3.8-5.1
	c-0.3-5.3-0.3-10.6-0.4-15.9c0-2.2,0.8-3.9,3-4.7c2.4-0.8,4.3,0.2,5.7,2C927.6,221.6,928,225.7,928,230.8z"/>
<path class="st29" d="M863.4,232.3c0,1.9,0.2,4.8-3.3,5.5c-3.4,0.7-5.1-1.4-6.3-4.4c-1.8-4.5-2.9-9.2-3.4-14
	c-0.3-2.8,0.4-5.5,3.5-6.4c3.2-0.8,4.9,1.2,6.1,3.8C862.1,221.6,863.1,226.5,863.4,232.3z"/>
<path class="st29" d="M980.1,233.8c-0.1,2.2-0.3,5-3.9,5.2c-2.6,0.1-4-1.7-4-4.1c-0.1-3.3,1.7-5.4,5-5.7
	C980,228.8,980.1,231.1,980.1,233.8z"/>
<path class="st22" d="M288.9,249.6l-0.4,0.2c0,0-0.5,0-0.5,0C288.3,249.7,288.6,249.6,288.9,249.6z"/>
<path class="st29" d="M391.9,280.3c0.1-6.6,4.6-12.2,9.9-12.3c4-0.1,6.9,3.1,7,7.4c0,6.6-5,12.7-10.3,12.6
	C394.3,287.9,391.9,285,391.9,280.3z"/>
<path class="st29" d="M967.1,280.6c-0.2,4.8-3,8.8-6,8.3c-3.3-0.5-4-3.1-3.9-5.9c0.2-5,3.1-9.2,6.1-9
	C965.8,274.3,967.3,276.9,967.1,280.6z"/>
<path class="st29" d="M546.7,282.6c0.3-5,2.9-8.8,5.9-8.5c3.5,0.4,4,3,4,5.8c-0.1,4.9-3,9.2-6,9.1
	C548,288.8,546.5,286.4,546.7,282.6z"/>
<path class="st29" d="M931.1,278.5c0.8-2.4,2.1-4.4,4.8-4.5c2.7-0.1,4.1,2,3.8,4.3c-0.5,3.4-3.4,1.2-5.2,1.5
	C933.5,280.1,931.4,281,931.1,278.5z"/>
<path class="st29" d="M908.1,280.1c-1.3-0.8-4,1.2-3.8-1.6c0.1-2.4,1.9-4.4,4.6-4.5c2.7-0.1,4,1.9,3.8,4.2
	C912.5,281.7,909.5,279.1,908.1,280.1z"/>
<path class="st29" d="M687.5,280.2c-1.3-1-4.2,1.2-4.1-1.8c0.1-2.4,1.9-4.3,4.7-4.3c2.5-0.1,3.6,1.8,3.7,3.9
	C692,281.8,688.8,279.1,687.5,280.2z"/>
<path class="st29" d="M496.2,280.1c-1.3-0.8-4,1.3-3.9-1.6c0.1-2.4,1.8-4.4,4.5-4.5c2.7-0.1,4,1.9,3.9,4.2
	C500.5,281.7,497.6,279.1,496.2,280.1z"/>
<path class="st29" d="M580.4,280.3c-1.5-0.9-4.2,1.1-4.1-1.7c0.1-2.4,1.8-4.4,4.5-4.5c2.7-0.1,4,1.9,3.9,4.2
	C584.6,281.8,581.4,278.8,580.4,280.3z"/>
<path class="st29" d="M781.1,280c-0.2,4.9-3,9.1-6.2,8.9c-3.6-0.3-4.5-3-4.4-6.1c0.1-4.9,3.1-8.9,6.4-8.9
	C779.7,274,781.3,276.2,781.1,280z"/>
<path class="st29" d="M997.1,280.3c-0.3,5-3.3,9.1-6.5,8.6c-3.6-0.5-4.3-3.3-4.2-6.3c0.3-5,3.3-8.9,6.6-8.6
	C996.8,274.5,997.3,277.2,997.1,280.3z"/>
<path class="st29" d="M1055,168.2c0,5.8-4.3,10.5-9.7,10.4c-5.5,0-10-4.6-10-10.3c0-5.7,4.4-10.4,9.8-10.4
	C1050.7,157.9,1054.9,162.3,1055,168.2z M1040.7,163.7c-3,3.5-2.8,7.1,0.4,10c2.7,2.5,6,2.5,9.9-0.2c-9.3,0.5-11.3-1.8-9.1-8.9
	c2.2-2.4,5.3-1.2,8-2.1C1046.4,160.4,1043.4,160.8,1040.7,163.7z"/>
<path class="st26" d="M1041.8,164.6c-2.1,7.1-0.1,9.4,9.1,8.9c-3.9,2.7-7.2,2.7-9.9,0.2c-3.2-2.9-3.4-6.6-0.4-10
	C1041.1,164,1041.4,164.3,1041.8,164.6z"/>
<path class="st26" d="M1040.7,163.7c2.7-2.9,5.7-3.3,9.1-1.2c-2.6,0.9-5.8-0.3-8,2.1C1041.4,164.3,1041.1,164,1040.7,163.7z"/>
</svg>
